<?xml version="1.0" encoding="utf-8"?>
<!-- Generator: Adobe Illustrator 24.1.1, SVG Export Plug-In . SVG Version: 6.00 Build 0)  -->
<svg version="1.1" id="facebook" xmlns="http://www.w3.org/2000/svg" xmlns:xlink="http://www.w3.org/1999/xlink" x="0px" y="0px"
	 viewBox="0 0 32 32" style="enable-background:new 0 0 32 32;" xml:space="preserve">
<style type="text/css">
	.st0{fill:#4267B2;}
	.st1{fill:#1769FF;}
</style>
<path class="st0" d="M30,2v28H2V2H30 M31,1H1v30h30V1z"/>
<path class="st1" d="M30,2v28H2V2H30 M31,1H1v30h30V1z"/>
<path id="behance" class="st1" d="M11.8,9.5c0.6,0,1.2,0.1,1.7,0.2c0.5,0.1,0.9,0.3,1.3,0.5s0.6,0.6,0.8,1c0.2,0.4,0.3,0.9,0.3,1.5
	c0,0.7-0.1,1.2-0.4,1.6s-0.7,0.8-1.3,1.1c0.8,0.2,1.4,0.6,1.8,1.2c0.4,0.6,0.6,1.3,0.6,2.1c0,0.7-0.1,1.2-0.4,1.7
	c-0.3,0.5-0.6,0.9-1,1.2c-0.4,0.3-0.9,0.5-1.5,0.7c-0.6,0.1-1.1,0.2-1.7,0.2H5.7V9.5H11.8z M11.4,14.8c0.5,0,0.9-0.1,1.3-0.4
	c0.3-0.2,0.5-0.6,0.5-1.2c0-0.3-0.1-0.5-0.2-0.7c-0.1-0.2-0.3-0.3-0.4-0.5c-0.2-0.1-0.4-0.2-0.6-0.2c-0.2,0-0.5-0.1-0.7-0.1H8.6v3
	L11.4,14.8L11.4,14.8z M11.6,20.3c0.3,0,0.5,0,0.8-0.1c0.3-0.1,0.5-0.1,0.7-0.3c0.2-0.1,0.3-0.3,0.5-0.5c0.1-0.2,0.2-0.5,0.2-0.8
	c0-0.7-0.2-1.1-0.6-1.4c-0.4-0.3-0.9-0.4-1.5-0.4H8.6v3.6L11.6,20.3L11.6,20.3z M20.1,20c0.4,0.4,0.9,0.6,1.7,0.6
	c0.5,0,1-0.1,1.3-0.4c0.4-0.3,0.6-0.5,0.7-0.8h2.3c-0.4,1.1-0.9,1.9-1.7,2.4c-0.7,0.5-1.7,0.7-2.7,0.7c-0.7,0-1.4-0.1-2-0.4
	c-0.6-0.2-1.1-0.6-1.5-1c-0.4-0.4-0.7-1-1-1.6c-0.2-0.6-0.3-1.3-0.3-2c0-0.7,0.1-1.4,0.3-2c0.2-0.6,0.6-1.1,1-1.6
	c0.4-0.4,0.9-0.8,1.5-1c0.6-0.3,1.2-0.4,1.9-0.4c0.8,0,1.5,0.2,2.1,0.5c0.6,0.3,1.1,0.7,1.5,1.2c0.4,0.5,0.7,1.1,0.8,1.8
	c0.2,0.7,0.2,1.4,0.2,2.1h-6.8C19.5,19,19.8,19.6,20.1,20L20.1,20z M23,15.1c-0.3-0.3-0.8-0.5-1.4-0.5c-0.4,0-0.8,0.1-1,0.2
	c-0.3,0.1-0.5,0.3-0.7,0.5c-0.2,0.2-0.3,0.4-0.3,0.7c-0.1,0.2-0.1,0.4-0.1,0.6h4.2C23.6,15.9,23.4,15.4,23,15.1L23,15.1z M19.1,10.2
	h5.2v1.5h-5.2V10.2z"/>
</svg>
