<svg xmlns="http://www.w3.org/2000/svg" viewBox="0 0 32 32" id="whatsapp"><g><g fill="#25d366"><path d="M30 2v28H2V2h28m1-1H1v30h30V1z"></path><path d="M30 2v28H2V2h28m1-1H1v30h30V1z"></path></g><path fill="#25d366" d="M15.365 16.221c-.446-.413-.942-.992-1.157-1.505-.033-.066-.099-.232 0-.364.198-.265.231-.281.446-.529.149-.182.264-.347.215-.496l-.744-1.935c-.066-.132-.264-.149-.496-.165-.198 0-.413 0-.562.033-.331.116-1.008 1.009-1.091 1.654-.182 1.405 1.091 3.274 2.363 4.432 1.273 1.174 3.24 2.282 4.628 1.968.645-.149 1.471-.893 1.537-1.24.033-.149.017-.363-.017-.562-.016-.231-.066-.397-.199-.463l-1.685-.778c-.149-.083-.298-.017-.446.166-.182.248-.265.347-.479.612-.116.149-.198.248-.33.264-.149.033-.347-.05-.38-.05-.529-.182-1.14-.629-1.603-1.042zm-5.553 5.937l.959-2.431a6.987 6.987 0 0 1-1.702-4.581c0-3.869 3.14-6.995 7.008-6.995a6.985 6.985 0 0 1 6.991 6.995c0 3.87-3.124 7.011-6.991 7.011a6.874 6.874 0 0 1-4.132-1.356l-2.133 1.357zm-1.174-2.382l-1.322 5.292 4.727-2.15a8.717 8.717 0 0 0 4.033.992c4.826 0 8.743-3.919 8.743-8.764 0-4.828-3.917-8.747-8.743-8.747-4.843 0-8.76 3.919-8.76 8.747 0 1.703.496 3.291 1.322 4.63z"></path></g></svg>